<svg xmlns="http://www.w3.org/2000/svg" width="900" height="286" viewBox="0 0 900 286" role="img" aria-label="GitHub profile statistics for Selmi-Med-Dhia">
<style>
.title{font:700 22px ui-monospace,SFMono-Regular,Menlo,Monaco,Consolas,monospace;fill:#00E5FF}
.sub{font:400 12px ui-monospace,SFMono-Regular,Menlo,Monaco,Consolas,monospace;fill:#8B949E}
.label{font:600 12px ui-monospace,SFMono-Regular,Menlo,Monaco,Consolas,monospace;fill:#8B949E}
.value{font:700 24px ui-monospace,SFMono-Regular,Menlo,Monaco,Consolas,monospace;fill:#C9D1D9}
.note{font:400 10px ui-monospace,SFMono-Regular,Menlo,Monaco,Consolas,monospace;fill:#6E7681}
</style>
<rect x="0.5" y="0.5" width="899" height="285" rx="14" fill="#0D1117" stroke="#21262D"/>
<text x="24" y="34" class="title">&gt; github.telemetry</text>
<text x="24" y="58" class="sub">GitHub-native public data · refreshed 2026-08-26 01:02 UTC</text>
<line x1="24" y1="76" x2="876" y2="76" stroke="#21262D"/>
<rect x="20" y="96" width="205" height="78" rx="10" fill="#0B141B" stroke="#1F2D35"/>
<text x="34" y="117" class="label">Contributions</text>
<text x="34" y="145" class="value">998</text>
<text x="34" y="163" class="note">last 365 days</text>
<rect x="238" y="96" width="205" height="78" rx="10" fill="#0B141B" stroke="#1F2D35"/>
<text x="252" y="117" class="label">Current streak</text>
<text x="252" y="145" class="value">16 days</text>
<text x="252" y="163" class="note">GitHub contribution days</text>
<rect x="456" y="96" width="205" height="78" rx="10" fill="#0B141B" stroke="#1F2D35"/>
<text x="470" y="117" class="label">Longest streak</text>
<text x="470" y="145" class="value">19 days</text>
<text x="470" y="163" class="note">within the last 365 days</text>
<rect x="674" y="96" width="205" height="78" rx="10" fill="#0B141B" stroke="#1F2D35"/>
<text x="688" y="117" class="label">Public repos</text>
<text x="688" y="145" class="value">20</text>
<text x="688" y="163" class="note">owned repositories</text>
<rect x="20" y="186" width="205" height="78" rx="10" fill="#0B141B" stroke="#1F2D35"/>
<text x="34" y="207" class="label">Public stars</text>
<text x="34" y="235" class="value">17</text>
<text x="34" y="253" class="note">across non-fork repos</text>
<rect x="238" y="186" width="205" height="78" rx="10" fill="#0B141B" stroke="#1F2D35"/>
<text x="252" y="207" class="label">Pull requests</text>
<text x="252" y="235" class="value">25</text>
<text x="252" y="253" class="note">opened publicly</text>
<rect x="456" y="186" width="205" height="78" rx="10" fill="#0B141B" stroke="#1F2D35"/>
<text x="470" y="207" class="label">Issues</text>
<text x="470" y="235" class="value">0</text>
<text x="470" y="253" class="note">opened publicly</text>
<rect x="674" y="186" width="205" height="78" rx="10" fill="#0B141B" stroke="#1F2D35"/>
<text x="688" y="207" class="label">Followers</text>
<text x="688" y="235" class="value">17</text>
<text x="688" y="253" class="note">public profile</text>
</svg>